<?xml version="1.0" encoding="utf-8"?>
<!-- Generator: Adobe Illustrator 26.0.1, SVG Export Plug-In . SVG Version: 6.00 Build 0)  -->
<svg version="1.1" id="Layer_1" xmlns="http://www.w3.org/2000/svg" xmlns:xlink="http://www.w3.org/1999/xlink" x="0px" y="0px"
	 viewBox="0 0 50 50" style="enable-background:new 0 0 50 50;" xml:space="preserve">
<style type="text/css">
	.st0{fill:#FFFFFF;}
</style>
<path class="st0" d="M38.1,45.3H11.6c-3.9,0-7.1-3.2-7.1-7.1V11.6c0-3.9,3.2-7.1,7.1-7.1h26.6c3.9,0,7.1,3.2,7.1,7.1v26.6
	C45.3,42.1,42.1,45.3,38.1,45.3z"/>
<path d="M9,4C6.3,4,4,6.3,4,9v32c0,2.7,2.3,5,5,5h32c2.7,0,5-2.3,5-5V9c0-2.7-2.3-5-5-5H9z M9,6h32c1.7,0,3,1.3,3,3v32
	c0,1.7-1.3,3-3,3H9c-1.7,0-3-1.3-3-3V9C6,7.3,7.3,6,9,6z M18.4,16c-0.2,0-0.4,0.2-0.4,0.3v1.3c0,0.2,0.2,0.3,0.4,0.3h1.4l4.3,8
	l-3.4,6.1L14.3,18h1.4c0.2,0,0.4-0.2,0.4-0.3v-1.3c0-0.2-0.2-0.3-0.4-0.3H8.4C8.2,16,8,16.2,8,16.3v1.3C8,17.8,8.2,18,8.4,18h2.1
	l9.3,18.8c0.1,0.1,0.2,0.2,0.4,0.2c0.2,0,0.3-0.1,0.4-0.2l4.7-8.5l4.4,8.5c0.1,0.1,0.2,0.2,0.4,0.2c0.2,0,0.3-0.1,0.4-0.2l9.2-18.9
	h2.1c0.2,0,0.4-0.2,0.4-0.3v-1.2c0-0.2-0.2-0.3-0.4-0.3h-6.3c-0.2,0-0.4,0.2-0.4,0.3v1.3c0,0.2,0.2,0.3,0.4,0.3h1.8l-6.7,14.1
	l-3.5-7l4.3-7.1h1.4c0.2,0,0.4-0.2,0.4-0.3v-1.3c0-0.2-0.2-0.3-0.4-0.3h-5.3c-0.2,0-0.4,0.2-0.4,0.3v1.3c0,0.2,0.2,0.3,0.4,0.3h1.4
	l-3,4.9L23.4,18h1.3c0.2,0,0.4-0.2,0.4-0.3v-1.3c0-0.2-0.2-0.4-0.4-0.4H18.4z"/>
<path class="st0" d="M11.9,14.6H9.7c-1.5,0-2.8-1.3-2.8-2.8v0C6.9,10.3,8.2,9,9.7,9h2.2c1.5,0,2.8,1.3,2.8,2.8v0
	C14.7,13.3,13.5,14.6,11.9,14.6z"/>
</svg>
