<?xml version="1.0" encoding="utf-8"?>
<!-- Generator: Adobe Illustrator 26.0.1, SVG Export Plug-In . SVG Version: 6.00 Build 0)  -->
<svg version="1.1" id="Layer_1" xmlns="http://www.w3.org/2000/svg" xmlns:xlink="http://www.w3.org/1999/xlink" x="0px" y="0px"
	 viewBox="0 0 556 382" style="enable-background:new 0 0 556 382;" xml:space="preserve">
<style type="text/css">
	.st0{fill-rule:evenodd;clip-rule:evenodd;}
</style>
<g>
	<path class="st0" d="M232.4,32.1H251v9.3h18.7v9.3h18.6v-9.3H307v-9.3h18.7v-9.3H531V340H325.7v9.3H307v9.3h-18.7v9.3h-18.7v-9.3
		H251v-9.3h-18.7V340H27V22.8h205.3v9.3H232.4z M232.4,41.4H45.7v279.9h186.7v9.3H251v9.3h18.7V69.4l0,0v-9.3H251v-9.3h-18.7
		L232.4,41.4z M325.7,41.4v9.3H307V60h-18.7v9.2l0,0V340H307v-9.3h18.7v-9.3h186.7v-280H325.7z M325.7,265.4H475v9.3H325.7V265.4z
		 M232.4,274.7H83v-9.3h149.3v9.3H232.4z M325.7,228H475v9.3H325.7V228z M232.4,237.4H83V228h149.3v9.4H232.4z M325.7,190.8H475v9.3
		H325.7V190.8z M232.4,200.2H83v-9.3h149.3v9.3H232.4z M325.7,153.5H475v9.3H325.7V153.5z M232.4,162.8H83v-9.3h149.3v9.3H232.4z
		 M325.7,116H475v9.3H325.7V116z M232.4,125.3H83V116h149.3v9.3H232.4z M325.7,78.7H475V88H325.7V78.7z M232.4,88H83v-9.3h149.3V88
		H232.4z"/>
</g>
</svg>
